<?xml version="1.0" standalone="no"?>
<!DOCTYPE svg PUBLIC "-//W3C//DTD SVG 20010904//EN"
 "http://www.w3.org/TR/2001/REC-SVG-20010904/DTD/svg10.dtd">
<svg version="1.0" xmlns="http://www.w3.org/2000/svg"
 width="700.000000pt" height="700.000000pt" viewBox="0 0 700.000000 700.000000"
 preserveAspectRatio="xMidYMid meet">
<metadata>
Created by potrace 1.14, written by Peter Selinger 2001-2017
</metadata>
<g transform="translate(0.000000,700.000000) scale(0.100000,-0.100000)"
fill="#000000" stroke="none">
<path d="M237 6044 c-2 -2 12 -63 31 -136 18 -73 35 -144 38 -158 3 -14 9 -38
14 -55 12 -41 33 -123 65 -255 6 -27 56 -225 60 -242 3 -10 7 -26 9 -35 2 -10
95 -380 206 -823 111 -443 211 -841 222 -885 33 -137 36 -147 67 -270 17 -66
36 -138 41 -160 8 -36 25 -104 36 -145 2 -8 11 -44 19 -80 19 -78 23 -94 70
-280 20 -80 38 -152 40 -160 2 -8 40 -159 85 -335 44 -176 85 -338 90 -360 5
-22 15 -65 24 -95 8 -30 17 -66 20 -80 3 -14 35 -141 71 -283 36 -142 65 -259
65 -261 0 -5 870 -2 871 3 1 10 5 26 69 286 34 138 63 257 65 265 2 8 22 89
44 179 23 91 43 174 46 185 2 12 11 48 19 81 19 73 187 758 250 1015 25 102
81 334 126 515 207 840 250 1019 280 1140 17 72 37 155 45 185 14 51 103 417
110 450 20 94 34 125 41 87 9 -51 15 -81 19 -86 3 -6 54 -216 76 -311 4 -19
17 -73 29 -120 12 -47 24 -96 26 -110 3 -14 7 -33 10 -42 3 -9 7 -25 9 -35 2
-10 22 -92 45 -183 23 -91 44 -176 46 -190 3 -14 14 -59 24 -100 18 -69 78
-316 85 -350 2 -8 18 -73 35 -145 18 -71 33 -134 34 -140 1 -5 5 -19 9 -30 3
-11 9 -31 11 -45 8 -39 38 -164 101 -420 31 -129 58 -242 60 -250 2 -8 31
-127 65 -265 60 -247 118 -486 125 -515 2 -8 26 -109 55 -225 28 -115 53 -217
55 -225 2 -8 20 -82 40 -165 20 -82 38 -157 40 -165 15 -72 59 -248 66 -261 7
-14 57 -15 435 -15 368 1 428 3 435 16 5 8 58 213 118 455 61 242 147 584 191
760 45 176 83 329 86 340 3 17 23 97 38 155 25 95 78 308 81 320 2 8 56 224
120 480 64 256 118 472 120 480 3 11 108 424 141 555 3 11 7 31 10 45 3 14 13
57 24 95 11 39 21 81 24 95 3 14 30 124 61 245 193 762 265 1047 265 1053 0 5
-156 8 -346 8 l-347 -1 -9 -25 c-8 -22 -63 -236 -73 -285 -2 -11 -20 -85 -40
-165 -20 -80 -38 -152 -40 -160 -2 -8 -126 -505 -275 -1105 -228 -916 -291
-1174 -325 -1315 -2 -8 -65 -260 -140 -560 -75 -300 -138 -549 -139 -555 -24
-102 -31 -125 -38 -125 -4 0 -8 7 -8 16 0 9 -45 198 -101 422 -55 223 -102
412 -104 421 -9 42 -376 1510 -385 1541 -8 28 -68 268 -85 340 -3 14 -69 277
-81 325 -3 11 -7 30 -10 41 -2 12 -36 150 -75 305 -39 156 -72 291 -74 299 -2
8 -36 144 -75 301 l-72 285 -386 0 -387 -1 -132 -525 c-72 -289 -134 -536
-137 -550 -2 -14 -58 -241 -124 -505 -136 -541 -200 -801 -207 -830 -2 -11
-27 -112 -55 -225 -29 -113 -53 -212 -55 -220 -2 -8 -40 -161 -85 -340 -45
-179 -83 -334 -86 -345 -2 -11 -46 -189 -98 -395 -64 -255 -96 -367 -100 -350
-3 14 -85 342 -182 730 -97 388 -178 716 -180 730 -3 14 -9 39 -15 56 -5 17
-11 40 -13 50 -2 10 -34 138 -71 284 -36 146 -68 272 -70 281 -5 22 -161 650
-277 1114 -103 413 -105 423 -112 453 -2 9 -36 145 -75 301 -39 157 -71 285
-71 286 0 2 -690 1 -693 -1z"/>
</g>
</svg>
